<svg xmlns="http://www.w3.org/2000/svg" version="1.1" xmlns:xlink="http://www.w3.org/1999/xlink" xmlns:svgjs="http://svgjs.com/svgjs" width="40" height="40"><svg viewBox="0 0 40 40" xmlns="http://www.w3.org/2000/svg" xmlns:bx="https://boxy-svg.com">
  <defs>
    <path id="SvgjsPath1006" d="M 229.75020336641745 310.8404084887625 L 243.43407264267896 321.7875108697475" style="fill: none;"></path>
    <path id="SvgjsPath1005" d="M 247.376 320.241 C 253.773 320.241 257.429 320.241 261.085 320.241 L 261.476 320.241 L 261.868 320.241" style="fill: none;"></path>
    <path id="SvgjsPath1004" d="M 266.176 319.849 L 270.876 315.932 C 273.142 313.1 274.761 308.522 277.143 306.14" style="fill: none;"></path>
    <path id="SvgjsPath1003" d="M 219.92 308.717 L 223.483 310.057 C 224.342 310.057 230.863 318.451 230.863 319.489" style="fill: none;"></path>
    <path id="SvgjsPath1002" d="M 220.742 308.882 L 223.483 310.057 C 224.342 310.057 230.534 314.503 230.534 315.541" style="fill: none;"></path>
    <path id="SvgjsPath1001" style="fill: none;" d="M 256.886 323.084 L 271.573 311.537"></path>
    <path id="SvgjsPath1000" d="M 131.83 356.275 L 138.881 355.883 C 142.093 355.883 149.027 356.275 152.198 356.275" style="fill: none;"></path>
  </defs>
  <g transform="matrix(1, 0, 0, 1, -142.738846, -144.110001)">
    <path style="fill: rgb(92, 96, 105);" transform="matrix(0.183444, 0, 0, -0.171449, 69.223206, 197.313065)" d="M 530 102.687 A 54.513 54.513 0 1 1 530 211.713 L 530 175.189 A 17.989 17.989 0 1 0 530 139.211 Z" bx:shape="pie 530 157.2 17.989 54.513 360 180 1@56263323"></path>
    <path style="fill: rgb(92, 96, 105);" transform="matrix(0.183444, 0, 0, -0.171449, 65.594543, 197.30835)" d="M 530 102.687 A 54.513 54.513 0 1 1 530 211.713 L 530 175.189 A 17.989 17.989 0 1 0 530 139.211 Z" bx:shape="pie 530 157.2 17.989 54.513 360 180 1@56263323"></path>
    <rect x="-167.446" y="161.018" width="9.805" height="6.749" style="fill: rgb(92, 96, 105);" transform="matrix(-1, 0, 0, 1, 0, 0)"></rect>
    <path style="fill: rgb(92, 96, 105);" transform="matrix(-0.183444, 0, 0, 0.171449, 254.967697, 131.507843)" d="M 530 102.687 A 54.513 54.513 0 1 1 530 211.713 L 530 175.189 A 17.989 17.989 0 1 0 530 139.211 Z" bx:shape="pie 530 157.2 17.989 54.513 360 180 1@56263323"></path>
    <path style="fill: rgb(92, 96, 105);" transform="matrix(-0.183444, 0, 0, 0.171449, 258.596405, 131.512573)" d="M 530 102.687 A 54.513 54.513 0 1 1 530 211.713 L 530 175.189 A 17.989 17.989 0 1 0 530 139.211 Z" bx:shape="pie 530 157.2 17.989 54.513 360 180 1@56263323"></path>
    <rect x="-166.57" y="149.11" width="9.9" height="6.749" style="fill: rgb(92, 96, 105);" transform="matrix(-1, 0, 0, 1, 0, 0)"></rect>
    <g transform="matrix(1, 0, 0, 1, -73.365829, 94.310371)">
      <path style="fill: rgb(92, 96, 105);" transform="matrix(0.183444, 0, 0, -0.171449, 139.346115, 91.097984)" d="M 584.513 157.2 A 54.513 54.513 0 0 1 530 211.713 L 530 175.189 A 17.989 17.989 0 0 0 547.989 157.2 Z" bx:shape="pie 530 157.2 17.989 54.513 90 180 1@7ba9271c"></path>
      <path style="fill: rgb(92, 96, 105);" transform="matrix(0.183444, 0, 0, -0.171449, 142.575867, 91.107414)" d="M 584.513 157.2 A 54.513 54.513 0 0 1 530 211.713 L 530 175.189 A 17.989 17.989 0 0 0 547.989 157.2 Z" bx:shape="pie 530 157.2 17.989 54.513 90 180 1@7ba9271c"></path>
    </g>
    <rect x="157.731" y="-179.692" width="9.9" height="6.749" style="fill: rgb(92, 96, 105);" transform="matrix(1, 0, 0, -1, 0, 0)"></rect>
    <g transform="matrix(-1, 0, 0, -1, 397.666351, 234.491241)">
      <path style="fill: rgb(92, 96, 105);" transform="matrix(0.183444, 0, 0, -0.171449, 139.346115, 91.097984)" d="M 584.513 157.2 A 54.513 54.513 0 0 1 530 211.713 L 530 175.189 A 17.989 17.989 0 0 0 547.989 157.2 Z" bx:shape="pie 530 157.2 17.989 54.513 90 180 1@7ba9271c"></path>
      <path style="fill: rgb(92, 96, 105);" transform="matrix(0.183444, 0, 0, -0.171449, 142.575867, 91.107414)" d="M 584.513 157.2 A 54.513 54.513 0 0 1 530 211.713 L 530 175.189 A 17.989 17.989 0 0 0 547.989 157.2 Z" bx:shape="pie 530 157.2 17.989 54.513 90 180 1@7ba9271c"></path>
    </g>
  </g>
  <g transform="matrix(0.785718, 0, 0, 0.898685, 39.382038, 22.039864)" style="">
    <rect x="-13.374" y="22.269" width="1.735" height="5.428" style="fill: rgb(65, 199, 199);" transform="matrix(0.99997, -0.007765, 0, 1.00003, -19.114592, -13.867574)"></rect>
    <rect x="-12.183" y="22.269" width="1.581" height="5.428" style="fill: rgb(65, 199, 199);" transform="matrix(0.99997, -0.007765, 0, 1.00003, -17.35339, -13.876558)"></rect>
    <rect x="-12.183" y="22.269" width="1.581" height="5.428" style="fill: rgb(65, 199, 199);" transform="matrix(0.99997, -0.007765, 0, 1.00003, -13.601352, -13.894061)"></rect>
    <rect x="-13.95" y="22.62" width="1.81" height="5.514" style="fill: rgb(65, 199, 199);" transform="matrix(0.760171, -0.649723, 0.643821, 0.765216, -33.282398, -16.71077)"></rect>
    <path style="fill: rgb(65, 199, 199);" transform="matrix(0.040646, 0, 0, 0.033593, -42.341328, 0.814087)" d="M 471.233 288.533 A 63.967 63.967 0 1 1 599.167 288.533 L 558.6 288.533 A 23.4 23.4 0 1 0 511.8 288.533 Z" bx:shape="pie 535.2 288.533 23.4 63.967 270 90 1@fda864c3"></path>
    <path style="fill: rgb(65, 199, 199);" transform="matrix(-0.040646, 0, 0, -0.033593, 1.198493, 21.567205)" d="M 471.233 288.533 A 63.967 63.967 0 1 1 599.167 288.533 L 558.6 288.533 A 23.4 23.4 0 1 0 511.8 288.533 Z" bx:shape="pie 535.2 288.533 23.4 63.967 270 90 1@fda864c3"></path>
    <path style="fill: rgb(65, 199, 199);" transform="matrix(0.045545, 0, 0, 0.056346, -45.453766, -5.0739)" d="M 535.2 337.738 A 49.205 49.205 0 1 1 535.2 239.328 L 535.2 265.133 A 23.4 23.4 0 1 0 535.2 311.933 Z" bx:shape="pie 535.2 288.533 23.4 49.205 180 360 1@2228a0d6"></path>
    <rect x="-7.338" y="6.505" width="0.952" height="1.585" style="fill: rgb(65, 199, 199);" transform="matrix(0.99997, -0.007765, 0, 1.00003, -15.125513, 3.765711)"></rect>
  </g>
  <g transform="matrix(0.973816, 0, 0, 0.875775, 2.251344, -2.036857)" style="">
    <rect x="18.186" y="9.246" width="1.771" height="5.359" style="fill: rgb(65, 199, 199);"></rect>
    <path style="fill: rgb(65, 199, 199);" transform="matrix(0.032997, 0, 0, 0.029824, 4.036685, 6.185485)" d="M 530 102.65 A 54.55 54.55 0 1 1 530 211.75 L 530 175.383 A 18.183 18.183 0 1 0 530 139.017 Z" bx:shape="pie 530 157.2 18.183 54.55 360 180 1@a8a908ac"></path>
    <rect x="19.908" y="9.243" width="1.744" height="1.239" style="fill: rgb(65, 199, 199);"></rect>
    <rect x="19.78" y="11.456" width="1.744" height="1.239" style="fill: rgb(65, 199, 199);"></rect>
    <path style="fill: rgb(65, 199, 199);" transform="matrix(0.032997, 0, 0, 0.029824, 3.417769, 6.294057)" d="M 530 102.65 A 54.55 54.55 0 1 1 530 211.75 L 530 175.383 A 18.183 18.183 0 1 0 530 139.017 Z" bx:shape="pie 530 157.2 18.183 54.55 360 180 1@a8a908ac"></path>
    <rect x="31.857" y="17.436" width="2.673" height="1.714" style="fill: rgb(65, 199, 199);" transform="matrix(0.456443, 0.889753, -1.121615, 0.004469, 27.23115, -16.188543)"></rect>
    <rect x="13.382" y="9.305" width="1.886" height="5.366" style="fill: rgb(65, 199, 199);" transform="matrix(0.999945, 0.010509, 0.355133, 1.003788, -4.990942, -0.272953)"></rect>
    <rect x="-13.312" y="-9.355" width="1.876" height="5.394" style="fill: rgb(65, 199, 199);" transform="matrix(-0.999991, -0.00421, -0.35327, 0.998522, 0.927186, 18.515623)"></rect>
  </g>
</svg><style>@media (prefers-color-scheme: light) { :root { filter: none; } }
@media (prefers-color-scheme: dark) { :root { filter: contrast(0.9090909090909091) brightness(1.5); } }
</style></svg>